<svg xmlns="http://www.w3.org/2000/svg" width="1200" height="900" viewBox="0 0 1200 900">
<rect x="0" y="0" width="100%" height="100%" fill="white"/>
<text x="40" y="26" font-size="20" font-family="Arial, sans-serif">ARG review map</text>
<text x="40" y="48" font-size="12" font-family="Arial, sans-serif">bbox=(-74.311523, -55.254077) - (-53.000000, -21.677848)</text>
<rect x="40" y="40" width="1120" height="820" fill="none" stroke="#999" stroke-width="1"/>
<rect x="871.42" y="47.87" width="288.58" height="219.71" fill="none" stroke="black" stroke-width="2"/>
<text x="875.42" y="63.87" font-size="12" font-family="Arial, sans-serif">ARG-01 | 北東亜熱帯地域</text>
<circle cx="1015.71" cy="157.72" r="2.5" fill="black"/>
<rect x="229.38" y="40.00" width="315.25" height="228.04" fill="none" stroke="black" stroke-width="2"/>
<text x="233.38" y="56.00" font-size="12" font-family="Arial, sans-serif">ARG-02 | 北西部乾燥峡谷地域</text>
<circle cx="387.00" cy="154.02" r="2.5" fill="black"/>
<rect x="545.78" y="47.87" width="324.48" height="218.79" fill="none" stroke="black" stroke-width="2"/>
<text x="549.78" y="63.87" font-size="12" font-family="Arial, sans-serif">ARG-03 | チャコ平原地帯</text>
<circle cx="708.02" cy="157.26" r="2.5" fill="black"/>
<rect x="543.47" y="266.20" width="254.04" height="251.67" fill="none" stroke="black" stroke-width="2"/>
<text x="547.47" y="282.20" font-size="12" font-family="Arial, sans-serif">ARG-04 | 中央パンパ湿潤地域</text>
<circle cx="670.49" cy="392.03" r="2.5" fill="black"/>
<rect x="139.31" y="268.96" width="403.58" height="260.16" fill="none" stroke="black" stroke-width="2"/>
<text x="143.31" y="284.96" font-size="12" font-family="Arial, sans-serif">ARG-05 | クージョ乾燥アンデス地域</text>
<circle cx="341.10" cy="399.04" r="2.5" fill="black"/>
<rect x="40.00" y="529.12" width="593.54" height="330.88" fill="none" stroke="black" stroke-width="2"/>
<text x="44.00" y="545.12" font-size="12" font-family="Arial, sans-serif">ARG-06 | パタゴニア半乾燥・寒冷地域</text>
<circle cx="336.77" cy="694.56" r="2.5" fill="black"/>
<rect x="799.82" y="267.12" width="228.64" height="207.40" fill="none" stroke="black" stroke-width="2"/>
<text x="803.82" y="283.12" font-size="12" font-family="Arial, sans-serif">ARG-07 | ブエノスアイレス首都圏</text>
<circle cx="914.14" cy="370.82" r="2.5" fill="black"/>
</svg>