<svg xmlns="http://www.w3.org/2000/svg" width="1200" height="900" viewBox="0 0 1200 900">
<rect x="0" y="0" width="100%" height="100%" fill="white"/>
<text x="40" y="26" font-size="20" font-family="Arial, sans-serif">AZE review map</text>
<text x="40" y="48" font-size="12" font-family="Arial, sans-serif">bbox=(44.719849, 38.300000) - (50.748596, 41.910453)</text>
<rect x="40" y="40" width="1120" height="820" fill="none" stroke="#999" stroke-width="1"/>
<rect x="930.77" y="314.35" width="223.62" height="136.45" fill="none" stroke="black" stroke-width="2"/>
<text x="934.77" y="330.35" font-size="12" font-family="Arial, sans-serif">AZE-01 | バクー・アプシェロン</text>
<circle cx="1042.58" cy="382.57" r="2.5" fill="black"/>
<rect x="753.33" y="40.00" width="406.67" height="275.06" fill="none" stroke="black" stroke-width="2"/>
<text x="757.33" y="56.00" font-size="12" font-family="Arial, sans-serif">AZE-02 | 北東カスピ沿岸</text>
<circle cx="956.67" cy="177.53" r="2.5" fill="black"/>
<rect x="54.29" y="42.37" width="699.04" height="272.21" fill="none" stroke="black" stroke-width="2"/>
<text x="58.29" y="58.37" font-size="12" font-family="Arial, sans-serif">AZE-03 | 北部大コーカサス山麓</text>
<circle cx="403.81" cy="178.48" r="2.5" fill="black"/>
<rect x="427.79" y="314.92" width="503.11" height="259.12" fill="none" stroke="black" stroke-width="2"/>
<text x="431.79" y="330.92" font-size="12" font-family="Arial, sans-serif">AZE-04 | 中央クラ低地</text>
<circle cx="679.34" cy="444.47" r="2.5" fill="black"/>
<rect x="149.19" y="314.92" width="277.58" height="260.08" fill="none" stroke="black" stroke-width="2"/>
<text x="153.19" y="330.92" font-size="12" font-family="Arial, sans-serif">AZE-05 | 西部内陸・カラバフ</text>
<circle cx="287.98" cy="444.95" r="2.5" fill="black"/>
<rect x="308.39" y="572.11" width="656.80" height="287.89" fill="none" stroke="black" stroke-width="2"/>
<text x="312.39" y="588.11" font-size="12" font-family="Arial, sans-serif">AZE-06 | 南部タリシュ・国境帯</text>
<circle cx="636.79" cy="716.05" r="2.5" fill="black"/>
<rect x="40.00" y="522.66" width="268.39" height="210.88" fill="none" stroke="black" stroke-width="2"/>
<text x="44.00" y="538.66" font-size="12" font-family="Arial, sans-serif">AZE-07 | ナヒチェヴァン</text>
<circle cx="174.20" cy="628.10" r="2.5" fill="black"/>
</svg>