<svg xmlns="http://www.w3.org/2000/svg" width="1200" height="900" viewBox="0 0 1200 900">
<rect x="0" y="0" width="100%" height="100%" fill="white"/>
<text x="40" y="26" font-size="20" font-family="Arial, sans-serif">BEL review map</text>
<text x="40" y="48" font-size="12" font-family="Arial, sans-serif">bbox=(2.384033, 49.457413) - (6.421509, 51.600000)</text>
<rect x="40" y="40" width="1120" height="820" fill="none" stroke="#999" stroke-width="1"/>
<rect x="710.19" y="142.06" width="147.95" height="204.11" fill="none" stroke="black" stroke-width="2"/>
<text x="714.19" y="158.06" font-size="12" font-family="Arial, sans-serif">BEL-01 | ブラバン・ワロン州 北部</text>
<circle cx="784.16" cy="244.12" r="2.5" fill="black"/>
<rect x="488.27" y="346.17" width="221.92" height="306.17" fill="none" stroke="black" stroke-width="2"/>
<text x="492.27" y="362.17" font-size="12" font-family="Arial, sans-serif">BEL-02 | ブラバン・ワロン州 南部</text>
<circle cx="599.23" cy="499.26" r="2.5" fill="black"/>
<rect x="44.43" y="40.00" width="438.71" height="347.80" fill="none" stroke="black" stroke-width="2"/>
<text x="48.43" y="56.00" font-size="12" font-family="Arial, sans-serif">BEL-01 | 北西フランデレン沿岸</text>
<circle cx="263.79" cy="213.90" r="2.5" fill="black"/>
<rect x="707.90" y="40.00" width="410.95" height="347.76" fill="none" stroke="black" stroke-width="2"/>
<text x="711.90" y="56.00" font-size="12" font-family="Arial, sans-serif">BEL-02 | 北東フランデレン内陸</text>
<circle cx="913.38" cy="213.88" r="2.5" fill="black"/>
<rect x="483.14" y="40.94" width="224.74" height="347.02" fill="none" stroke="black" stroke-width="2"/>
<text x="487.14" y="56.94" font-size="12" font-family="Arial, sans-serif">BEL-03 | ブリュッセル首都圏</text>
<circle cx="595.51" cy="214.45" r="2.5" fill="black"/>
<rect x="40.00" y="387.80" width="1120.00" height="218.40" fill="none" stroke="black" stroke-width="2"/>
<text x="44.00" y="403.80" font-size="12" font-family="Arial, sans-serif">BEL-04 | ワロン北部中軸</text>
<circle cx="600.00" cy="497.00" r="2.5" fill="black"/>
<rect x="500.19" y="607.54" width="586.67" height="252.46" fill="none" stroke="black" stroke-width="2"/>
<text x="504.19" y="623.54" font-size="12" font-family="Arial, sans-serif">BEL-05 | ワロン南部アルデンヌ</text>
<circle cx="793.52" cy="733.77" r="2.5" fill="black"/>
</svg>