<svg xmlns="http://www.w3.org/2000/svg" width="1200" height="900" viewBox="0 0 1200 900">
<rect x="0" y="0" width="100%" height="100%" fill="white"/>
<text x="40" y="26" font-size="20" font-family="Arial, sans-serif">BRA review map</text>
<text x="40" y="48" font-size="12" font-family="Arial, sans-serif">bbox=(-74.135742, -34.500000) - (-29.487305, 5.500000)</text>
<rect x="40" y="40" width="1120" height="820" fill="none" stroke="#999" stroke-width="1"/>
<rect x="40.00" y="40.00" width="267.87" height="419.12" fill="none" stroke="black" stroke-width="2"/>
<text x="44.00" y="56.00" font-size="12" font-family="Arial, sans-serif">BRA-01 | 北西アマゾン</text>
<circle cx="173.94" cy="249.56" r="2.5" fill="black"/>
<rect x="306.80" y="40.00" width="579.82" height="182.98" fill="none" stroke="black" stroke-width="2"/>
<text x="310.80" y="56.00" font-size="12" font-family="Arial, sans-serif">BRA-02 | 北東アマゾン・北岸</text>
<circle cx="596.71" cy="131.49" r="2.5" fill="black"/>
<rect x="887.72" y="172.57" width="272.28" height="278.71" fill="none" stroke="black" stroke-width="2"/>
<text x="891.72" y="188.57" font-size="12" font-family="Arial, sans-serif">BRA-03 | 北東部沿岸</text>
<circle cx="1023.86" cy="311.92" r="2.5" fill="black"/>
<rect x="308.98" y="222.08" width="578.74" height="230.07" fill="none" stroke="black" stroke-width="2"/>
<text x="312.98" y="238.08" font-size="12" font-family="Arial, sans-serif">BRA-04 | 中西部セラード</text>
<circle cx="598.35" cy="337.11" r="2.5" fill="black"/>
<rect x="353.07" y="451.28" width="181.89" height="218.28" fill="none" stroke="black" stroke-width="2"/>
<text x="357.07" y="467.28" font-size="12" font-family="Arial, sans-serif">BRA-05 | パンタナール・西部内陸</text>
<circle cx="444.02" cy="560.42" r="2.5" fill="black"/>
<rect x="748.82" y="451.71" width="294.33" height="218.55" fill="none" stroke="black" stroke-width="2"/>
<text x="752.82" y="467.71" font-size="12" font-family="Arial, sans-serif">BRA-06 | 南東部沿岸都市圏</text>
<circle cx="895.98" cy="560.99" r="2.5" fill="black"/>
<rect x="534.96" y="450.00" width="214.13" height="219.86" fill="none" stroke="black" stroke-width="2"/>
<text x="538.96" y="466.00" font-size="12" font-family="Arial, sans-serif">BRA-07 | 南東部内陸高原</text>
<circle cx="642.03" cy="559.93" r="2.5" fill="black"/>
<rect x="432.22" y="669.45" width="316.60" height="190.55" fill="none" stroke="black" stroke-width="2"/>
<text x="436.22" y="685.45" font-size="12" font-family="Arial, sans-serif">BRA-08 | 南部温帯地域</text>
<circle cx="590.52" cy="764.73" r="2.5" fill="black"/>
</svg>