<svg xmlns="http://www.w3.org/2000/svg" width="1200" height="900" viewBox="0 0 1200 900">
<rect x="0" y="0" width="100%" height="100%" fill="white"/>
<text x="40" y="26" font-size="20" font-family="Arial, sans-serif">CAN review map</text>
<text x="40" y="48" font-size="12" font-family="Arial, sans-serif">bbox=(-141.500000, 40.647304) - (-49.130859, 84.500000)</text>
<rect x="40" y="40" width="1120" height="820" fill="none" stroke="#999" stroke-width="1"/>
<rect x="40.22" y="485.11" width="236.58" height="239.52" fill="none" stroke="black" stroke-width="2"/>
<text x="44.22" y="501.11" font-size="12" font-family="Arial, sans-serif">CAN-01 | ブリティッシュコロンビア沿岸</text>
<circle cx="158.51" cy="604.87" r="2.5" fill="black"/>
<rect x="276.80" y="485.13" width="130.75" height="227.17" fill="none" stroke="black" stroke-width="2"/>
<text x="280.80" y="501.13" font-size="12" font-family="Arial, sans-serif">CAN-02 | 西部山岳・内陸</text>
<circle cx="342.18" cy="598.72" r="2.5" fill="black"/>
<rect x="407.62" y="485.13" width="199.29" height="226.63" fill="none" stroke="black" stroke-width="2"/>
<text x="411.62" y="501.13" font-size="12" font-family="Arial, sans-serif">CAN-03 | プレーリー地域</text>
<circle cx="507.26" cy="598.45" r="2.5" fill="black"/>
<rect x="603.17" y="677.08" width="252.04" height="182.92" fill="none" stroke="black" stroke-width="2"/>
<text x="607.17" y="693.08" font-size="12" font-family="Arial, sans-serif">CAN-04 | オンタリオ・五大湖地域</text>
<circle cx="729.19" cy="768.54" r="2.5" fill="black"/>
<rect x="606.90" y="485.54" width="422.02" height="192.07" fill="none" stroke="black" stroke-width="2"/>
<text x="610.90" y="501.54" font-size="12" font-family="Arial, sans-serif">CAN-05 | 南部ケベック・セントローレンス</text>
<circle cx="817.91" cy="581.57" r="2.5" fill="black"/>
<rect x="855.21" y="677.08" width="180.10" height="136.44" fill="none" stroke="black" stroke-width="2"/>
<text x="859.21" y="693.08" font-size="12" font-family="Arial, sans-serif">CAN-06 | 大西洋岸州</text>
<circle cx="945.26" cy="745.30" r="2.5" fill="black"/>
<rect x="40.00" y="139.02" width="409.18" height="346.36" fill="none" stroke="black" stroke-width="2"/>
<text x="44.00" y="155.02" font-size="12" font-family="Arial, sans-serif">CAN-07 | ユーコン・北西準州</text>
<circle cx="244.59" cy="312.20" r="2.5" fill="black"/>
<rect x="449.18" y="227.99" width="570.15" height="257.55" fill="none" stroke="black" stroke-width="2"/>
<text x="453.18" y="243.99" font-size="12" font-family="Arial, sans-serif">CAN-08 | ヌナブト南部・本土側</text>
<circle cx="734.25" cy="356.76" r="2.5" fill="black"/>
<rect x="453.44" y="40.00" width="574.77" height="187.94" fill="none" stroke="black" stroke-width="2"/>
<text x="457.44" y="56.00" font-size="12" font-family="Arial, sans-serif">CAN-09 | ヌナブト北部・北極諸島</text>
<circle cx="740.83" cy="133.97" r="2.5" fill="black"/>
<rect x="1032.12" y="481.53" width="127.88" height="267.93" fill="none" stroke="black" stroke-width="2"/>
<text x="1036.12" y="497.53" font-size="12" font-family="Arial, sans-serif">CAN-10 | 北東部・ラブラドール</text>
<circle cx="1096.06" cy="615.49" r="2.5" fill="black"/>
</svg>