<svg xmlns="http://www.w3.org/2000/svg" width="1200" height="900" viewBox="0 0 1200 900">
<rect x="0" y="0" width="100%" height="100%" fill="white"/>
<text x="40" y="26" font-size="20" font-family="Arial, sans-serif">CHL review map</text>
<text x="40" y="48" font-size="12" font-family="Arial, sans-serif">bbox=(-112.148438, -56.764768) - (-65.610352, -16.972741)</text>
<rect x="40" y="40" width="1120" height="820" fill="none" stroke="#999" stroke-width="1"/>
<rect x="780.32" y="40.00" width="350.07" height="206.24" fill="none" stroke="black" stroke-width="2"/>
<text x="784.32" y="56.00" font-size="12" font-family="Arial, sans-serif">CHL-01 | 北部乾燥地帯</text>
<circle cx="955.35" cy="143.12" r="2.5" fill="black"/>
<rect x="779.26" y="245.83" width="323.10" height="124.44" fill="none" stroke="black" stroke-width="2"/>
<text x="783.26" y="261.83" font-size="12" font-family="Arial, sans-serif">CHL-02 | 北部沿岸・鉱業地域</text>
<circle cx="940.81" cy="308.06" r="2.5" fill="black"/>
<rect x="779.26" y="370.83" width="285.02" height="103.83" fill="none" stroke="black" stroke-width="2"/>
<text x="783.26" y="386.83" font-size="12" font-family="Arial, sans-serif">CHL-03 | 中部農業・ワイン地域</text>
<circle cx="921.78" cy="422.75" r="2.5" fill="black"/>
<rect x="809.41" y="475.02" width="244.95" height="101.33" fill="none" stroke="black" stroke-width="2"/>
<text x="813.41" y="491.02" font-size="12" font-family="Arial, sans-serif">CHL-04 | 南西部森林・湖沼地帯</text>
<circle cx="931.88" cy="525.68" r="2.5" fill="black"/>
<rect x="815.22" y="576.35" width="239.14" height="204.74" fill="none" stroke="black" stroke-width="2"/>
<text x="819.22" y="592.35" font-size="12" font-family="Arial, sans-serif">CHL-05 | 南部パタゴニア地域</text>
<circle cx="934.79" cy="678.72" r="2.5" fill="black"/>
<rect x="899.30" y="782.42" width="260.70" height="77.58" fill="none" stroke="black" stroke-width="2"/>
<text x="903.30" y="798.42" font-size="12" font-family="Arial, sans-serif">CHL-06 | 最南部・フエゴ島</text>
<circle cx="1029.65" cy="821.21" r="2.5" fill="black"/>
<rect x="40.00" y="189.08" width="196.71" height="98.77" fill="none" stroke="black" stroke-width="2"/>
<text x="44.00" y="205.08" font-size="12" font-family="Arial, sans-serif">CHL-07 | 太平洋諸島（イースター島）</text>
<circle cx="138.36" cy="238.46" r="2.5" fill="black"/>
</svg>