<svg xmlns="http://www.w3.org/2000/svg" width="1200" height="900" viewBox="0 0 1200 900">
<rect x="0" y="0" width="100%" height="100%" fill="white"/>
<text x="40" y="26" font-size="20" font-family="Arial, sans-serif">COD review map</text>
<text x="40" y="48" font-size="12" font-family="Arial, sans-serif">bbox=(11.777344, -14.093957) - (31.948242, 5.331644)</text>
<rect x="40" y="40" width="1120" height="820" fill="none" stroke="#999" stroke-width="1"/>
<rect x="40.00" y="394.85" width="287.93" height="132.18" fill="none" stroke="black" stroke-width="2"/>
<text x="44.00" y="410.85" font-size="12" font-family="Arial, sans-serif">COD-01 | キンシャサ首都圏</text>
<circle cx="183.97" cy="460.94" r="2.5" fill="black"/>
<rect x="265.71" y="41.85" width="345.27" height="353.00" fill="none" stroke="black" stroke-width="2"/>
<text x="269.71" y="57.85" font-size="12" font-family="Arial, sans-serif">COD-02 | コンゴ川流域西部</text>
<circle cx="438.34" cy="218.35" r="2.5" fill="black"/>
<rect x="612.20" y="40.00" width="285.49" height="351.15" fill="none" stroke="black" stroke-width="2"/>
<text x="616.20" y="56.00" font-size="12" font-family="Arial, sans-serif">COD-03 | コンゴ川流域東部</text>
<circle cx="754.95" cy="215.57" r="2.5" fill="black"/>
<rect x="327.93" y="393.93" width="564.88" height="135.88" fill="none" stroke="black" stroke-width="2"/>
<text x="331.93" y="409.93" font-size="12" font-family="Arial, sans-serif">COD-04 | カサイ地方</text>
<circle cx="610.37" cy="461.86" r="2.5" fill="black"/>
<rect x="286.45" y="527.96" width="607.58" height="277.92" fill="none" stroke="black" stroke-width="2"/>
<text x="290.45" y="543.96" font-size="12" font-family="Arial, sans-serif">COD-05 | 南東部高原地帯</text>
<circle cx="590.24" cy="666.92" r="2.5" fill="black"/>
<rect x="897.69" y="45.54" width="262.31" height="814.46" fill="none" stroke="black" stroke-width="2"/>
<text x="901.69" y="61.54" font-size="12" font-family="Arial, sans-serif">COD-06 | 東部山岳・湖沼地帯</text>
<circle cx="1028.85" cy="452.77" r="2.5" fill="black"/>
</svg>