<svg xmlns="http://www.w3.org/2000/svg" width="1200" height="900" viewBox="0 0 1200 900">
<rect x="0" y="0" width="100%" height="100%" fill="white"/>
<text x="40" y="26" font-size="20" font-family="Arial, sans-serif">ECU review map</text>
<text x="40" y="48" font-size="12" font-family="Arial, sans-serif">bbox=(-92.724609, -5.074529) - (-74.904785, 2.537012)</text>
<rect x="40" y="40" width="1120" height="820" fill="none" stroke="#999" stroke-width="1"/>
<rect x="852.33" y="140.95" width="155.07" height="255.22" fill="none" stroke="black" stroke-width="2"/>
<text x="856.33" y="156.95" font-size="12" font-family="Arial, sans-serif">ECU-01 | 北部アンデス</text>
<circle cx="929.86" cy="268.55" r="2.5" fill="black"/>
<rect x="850.65" y="393.80" width="155.02" height="167.30" fill="none" stroke="black" stroke-width="2"/>
<text x="854.65" y="409.80" font-size="12" font-family="Arial, sans-serif">ECU-02 | 中部アンデス</text>
<circle cx="928.16" cy="477.45" r="2.5" fill="black"/>
<rect x="851.00" y="558.25" width="155.02" height="301.75" fill="none" stroke="black" stroke-width="2"/>
<text x="855.00" y="574.25" font-size="12" font-family="Arial, sans-serif">ECU-03 | 南部アンデス</text>
<circle cx="928.51" cy="709.12" r="2.5" fill="black"/>
<rect x="758.05" y="140.95" width="93.29" height="690.17" fill="none" stroke="black" stroke-width="2"/>
<text x="762.05" y="156.95" font-size="12" font-family="Arial, sans-serif">ECU-04 | 太平洋沿岸</text>
<circle cx="804.70" cy="486.03" r="2.5" fill="black"/>
<rect x="1005.33" y="230.47" width="154.67" height="427.09" fill="none" stroke="black" stroke-width="2"/>
<text x="1009.33" y="246.47" font-size="12" font-family="Arial, sans-serif">ECU-05 | 東部アマゾン</text>
<circle cx="1082.66" cy="444.01" r="2.5" fill="black"/>
<rect x="40.00" y="40.00" width="258.25" height="501.69" fill="none" stroke="black" stroke-width="2"/>
<text x="44.00" y="56.00" font-size="12" font-family="Arial, sans-serif">ECU-06 | ガラパゴス諸島</text>
<circle cx="169.12" cy="290.85" r="2.5" fill="black"/>
</svg>