<svg xmlns="http://www.w3.org/2000/svg" width="1200" height="900" viewBox="0 0 1200 900">
<rect x="0" y="0" width="100%" height="100%" fill="white"/>
<text x="40" y="26" font-size="20" font-family="Arial, sans-serif">IDN review map</text>
<text x="40" y="48" font-size="12" font-family="Arial, sans-serif">bbox=(94.504395, -11.824341) - (141.000000, 6.380812)</text>
<rect x="40" y="40" width="1120" height="820" fill="none" stroke="#999" stroke-width="1"/>
<rect x="40.00" y="40.00" width="148.73" height="462.45" fill="none" stroke="black" stroke-width="2"/>
<text x="44.00" y="56.00" font-size="12" font-family="Arial, sans-serif">IDN-01 | スマトラ島北部</text>
<circle cx="114.36" cy="271.22" r="2.5" fill="black"/>
<rect x="192.43" y="160.26" width="150.85" height="435.85" fill="none" stroke="black" stroke-width="2"/>
<text x="196.43" y="176.26" font-size="12" font-family="Arial, sans-serif">IDN-02 | スマトラ島南部</text>
<circle cx="267.86" cy="378.19" r="2.5" fill="black"/>
<rect x="288.76" y="592.18" width="124.91" height="109.99" fill="none" stroke="black" stroke-width="2"/>
<text x="292.76" y="608.18" font-size="12" font-family="Arial, sans-serif">IDN-03 | ジャワ島西部</text>
<circle cx="351.22" cy="647.17" r="2.5" fill="black"/>
<rect x="413.15" y="574.94" width="114.85" height="163.42" fill="none" stroke="black" stroke-width="2"/>
<text x="417.15" y="590.94" font-size="12" font-family="Arial, sans-serif">IDN-04 | ジャワ島東部</text>
<circle cx="470.57" cy="656.65" r="2.5" fill="black"/>
<rect x="528.00" y="620.71" width="379.50" height="239.29" fill="none" stroke="black" stroke-width="2"/>
<text x="532.00" y="636.71" font-size="12" font-family="Arial, sans-serif">IDN-05 | バリ島・ヌサ・トゥンガラ諸島</text>
<circle cx="717.75" cy="740.36" r="2.5" fill="black"/>
<rect x="343.28" y="101.06" width="286.34" height="468.47" fill="none" stroke="black" stroke-width="2"/>
<text x="347.28" y="117.06" font-size="12" font-family="Arial, sans-serif">IDN-06 | カリマンタン島</text>
<circle cx="486.45" cy="335.29" r="2.5" fill="black"/>
<rect x="620.62" y="48.85" width="284.75" height="572.84" fill="none" stroke="black" stroke-width="2"/>
<text x="624.62" y="64.85" font-size="12" font-family="Arial, sans-serif">IDN-07 | スラウェシ島・モルッカ諸島</text>
<circle cx="763.00" cy="335.27" r="2.5" fill="black"/>
<rect x="906.44" y="254.18" width="253.56" height="523.65" fill="none" stroke="black" stroke-width="2"/>
<text x="910.44" y="270.18" font-size="12" font-family="Arial, sans-serif">IDN-08 | ニューギニア島（インドネシア領）</text>
<circle cx="1033.22" cy="516.00" r="2.5" fill="black"/>
</svg>