<svg xmlns="http://www.w3.org/2000/svg" width="1200" height="900" viewBox="0 0 1200 900">
<rect x="0" y="0" width="100%" height="100%" fill="white"/>
<text x="40" y="26" font-size="20" font-family="Arial, sans-serif">MNG review map</text>
<text x="40" y="48" font-size="12" font-family="Arial, sans-serif">bbox=(87.473145, 41.310824) - (119.970000, 52.268157)</text>
<rect x="40" y="40" width="1120" height="820" fill="none" stroke="#999" stroke-width="1"/>
<rect x="644.06" y="146.31" width="344.82" height="262.58" fill="none" stroke="black" stroke-width="2"/>
<text x="648.06" y="162.31" font-size="12" font-family="Arial, sans-serif">MNG-01 | モンゴル北部（森林・山岳地帯）</text>
<circle cx="816.47" cy="277.60" r="2.5" fill="black"/>
<rect x="299.75" y="40.00" width="344.31" height="469.08" fill="none" stroke="black" stroke-width="2"/>
<text x="303.75" y="56.00" font-size="12" font-family="Arial, sans-serif">MNG-02 | モンゴル中央部（草原地帯）</text>
<circle cx="471.90" cy="274.54" r="2.5" fill="black"/>
<rect x="40.00" y="135.94" width="259.41" height="522.16" fill="none" stroke="black" stroke-width="2"/>
<text x="44.00" y="151.94" font-size="12" font-family="Arial, sans-serif">MNG-03 | モンゴル西部（アルタイ山脈地域）</text>
<circle cx="169.71" cy="397.03" r="2.5" fill="black"/>
<rect x="643.56" y="411.12" width="344.56" height="442.71" fill="none" stroke="black" stroke-width="2"/>
<text x="647.56" y="427.12" font-size="12" font-family="Arial, sans-serif">MNG-04 | モンゴル南東部（ゴビ砂漠北部）</text>
<circle cx="815.84" cy="632.47" r="2.5" fill="black"/>
<rect x="298.23" y="511.59" width="345.32" height="348.41" fill="none" stroke="black" stroke-width="2"/>
<text x="302.23" y="527.59" font-size="12" font-family="Arial, sans-serif">MNG-05 | モンゴル南部（ゴビ砂漠南部）</text>
<circle cx="470.90" cy="685.80" r="2.5" fill="black"/>
<rect x="988.88" y="168.18" width="171.12" height="406.75" fill="none" stroke="black" stroke-width="2"/>
<text x="992.88" y="184.18" font-size="12" font-family="Arial, sans-serif">MNG-06 | モンゴル東部（高原・平原地帯）</text>
<circle cx="1074.44" cy="371.56" r="2.5" fill="black"/>
</svg>