<svg xmlns="http://www.w3.org/2000/svg" width="1200" height="900" viewBox="0 0 1200 900">
<rect x="0" y="0" width="100%" height="100%" fill="white"/>
<text x="40" y="26" font-size="20" font-family="Arial, sans-serif">PAK review map</text>
<text x="40" y="48" font-size="12" font-family="Arial, sans-serif">bbox=(60.754395, 23.644524) - (77.129517, 37.085858)</text>
<rect x="40" y="40" width="1120" height="820" fill="none" stroke="#999" stroke-width="1"/>
<rect x="732.06" y="40.00" width="427.94" height="188.38" fill="none" stroke="black" stroke-width="2"/>
<text x="736.06" y="56.00" font-size="12" font-family="Arial, sans-serif">PAK-01 | 北部山岳地帯</text>
<circle cx="946.03" cy="134.19" r="2.5" fill="black"/>
<rect x="399.93" y="223.38" width="340.83" height="248.90" fill="none" stroke="black" stroke-width="2"/>
<text x="403.93" y="239.38" font-size="12" font-family="Arial, sans-serif">PAK-02 | 北西部高原・山岳地帯</text>
<circle cx="570.35" cy="347.83" r="2.5" fill="black"/>
<rect x="740.76" y="228.26" width="341.98" height="244.02" fill="none" stroke="black" stroke-width="2"/>
<text x="744.76" y="244.26" font-size="12" font-family="Arial, sans-serif">PAK-03 | インダス川中流域（パンジャーブ地方）</text>
<circle cx="911.75" cy="350.27" r="2.5" fill="black"/>
<rect x="398.78" y="472.28" width="545.94" height="242.97" fill="none" stroke="black" stroke-width="2"/>
<text x="402.78" y="488.28" font-size="12" font-family="Arial, sans-serif">PAK-04 | インダス川下流域（シンド地方）</text>
<circle cx="671.75" cy="593.76" r="2.5" fill="black"/>
<rect x="40.00" y="473.29" width="358.78" height="365.03" fill="none" stroke="black" stroke-width="2"/>
<text x="44.00" y="489.29" font-size="12" font-family="Arial, sans-serif">PAK-05 | 西部高原地帯（バローチスターン地方）</text>
<circle cx="219.39" cy="655.80" r="2.5" fill="black"/>
<rect x="399.93" y="716.30" width="371.96" height="143.70" fill="none" stroke="black" stroke-width="2"/>
<text x="403.93" y="732.30" font-size="12" font-family="Arial, sans-serif">PAK-06 | 南東部砂漠地帯</text>
<circle cx="585.91" cy="788.15" r="2.5" fill="black"/>
</svg>