<svg xmlns="http://www.w3.org/2000/svg" width="1200" height="900" viewBox="0 0 1200 900">
<rect x="0" y="0" width="100%" height="100%" fill="white"/>
<text x="40" y="26" font-size="20" font-family="Arial, sans-serif">PER review map</text>
<text x="40" y="48" font-size="12" font-family="Arial, sans-serif">bbox=(-82.595215, -18.625425) - (-68.411865, -0.021973)</text>
<rect x="40" y="40" width="1120" height="820" fill="none" stroke="#999" stroke-width="1"/>
<rect x="40.00" y="151.34" width="360.90" height="369.00" fill="none" stroke="black" stroke-width="2"/>
<text x="44.00" y="167.34" font-size="12" font-family="Arial, sans-serif">PER-01 | ペルー北海岸地域</text>
<circle cx="220.45" cy="335.84" r="2.5" fill="black"/>
<rect x="402.86" y="40.00" width="393.63" height="263.43" fill="none" stroke="black" stroke-width="2"/>
<text x="406.86" y="56.00" font-size="12" font-family="Arial, sans-serif">PER-02 | ペルー中部・リマ広域地域</text>
<circle cx="599.68" cy="171.72" r="2.5" fill="black"/>
<rect x="397.43" y="566.86" width="539.61" height="281.20" fill="none" stroke="black" stroke-width="2"/>
<text x="401.43" y="582.86" font-size="12" font-family="Arial, sans-serif">PER-03 | ペルー南海岸・ナスカ地域</text>
<circle cx="667.23" cy="707.46" r="2.5" fill="black"/>
<rect x="402.86" y="303.50" width="394.83" height="264.47" fill="none" stroke="black" stroke-width="2"/>
<text x="406.86" y="319.50" font-size="12" font-family="Arial, sans-serif">PER-04 | アンデス山脈北部・中部地域</text>
<circle cx="600.28" cy="435.73" r="2.5" fill="black"/>
<rect x="935.31" y="566.86" width="224.69" height="293.14" fill="none" stroke="black" stroke-width="2"/>
<text x="939.31" y="582.86" font-size="12" font-family="Arial, sans-serif">PER-05 | アンデス山脈南部・チチカカ湖地域</text>
<circle cx="1047.65" cy="713.43" r="2.5" fill="black"/>
<rect x="797.37" y="123.28" width="342.68" height="443.58" fill="none" stroke="black" stroke-width="2"/>
<text x="801.37" y="139.28" font-size="12" font-family="Arial, sans-serif">PER-06 | アマゾン熱帯雨林地域</text>
<circle cx="968.71" cy="345.07" r="2.5" fill="black"/>
</svg>