<svg xmlns="http://www.w3.org/2000/svg" width="1200" height="900" viewBox="0 0 1200 900">
<rect x="0" y="0" width="100%" height="100%" fill="white"/>
<text x="40" y="26" font-size="20" font-family="Arial, sans-serif">SAU review map</text>
<text x="40" y="48" font-size="12" font-family="Arial, sans-serif">bbox=(34.409180, 16.003576) - (56.008301, 32.620870)</text>
<rect x="40" y="40" width="1120" height="820" fill="none" stroke="#999" stroke-width="1"/>
<rect x="47.98" y="40.00" width="689.32" height="188.24" fill="none" stroke="black" stroke-width="2"/>
<text x="51.98" y="56.00" font-size="12" font-family="Arial, sans-serif">SAU-01 | 北部国境地域</text>
<circle cx="392.63" cy="134.12" r="2.5" fill="black"/>
<rect x="749.26" y="225.39" width="222.75" height="238.71" fill="none" stroke="black" stroke-width="2"/>
<text x="753.26" y="241.39" font-size="12" font-family="Arial, sans-serif">SAU-02 | 北東部・ペルシャ湾岸地域</text>
<circle cx="860.63" cy="344.75" r="2.5" fill="black"/>
<rect x="384.09" y="229.19" width="369.16" height="396.29" fill="none" stroke="black" stroke-width="2"/>
<text x="388.09" y="245.19" font-size="12" font-family="Arial, sans-serif">SAU-03 | 中央高原（ナジュド地方）</text>
<circle cx="568.67" cy="427.34" r="2.5" fill="black"/>
<rect x="40.00" y="229.19" width="342.95" height="388.18" fill="none" stroke="black" stroke-width="2"/>
<text x="44.00" y="245.19" font-size="12" font-family="Arial, sans-serif">SAU-04 | 西部・紅海沿岸地域（ヒジャーズ地方）</text>
<circle cx="211.48" cy="423.28" r="2.5" fill="black"/>
<rect x="274.71" y="618.39" width="287.12" height="241.61" fill="none" stroke="black" stroke-width="2"/>
<text x="278.71" y="634.39" font-size="12" font-family="Arial, sans-serif">SAU-05 | 南西部・山岳地帯（アシール地方）</text>
<circle cx="418.27" cy="739.19" r="2.5" fill="black"/>
<rect x="754.38" y="466.09" width="405.62" height="297.48" fill="none" stroke="black" stroke-width="2"/>
<text x="758.38" y="482.09" font-size="12" font-family="Arial, sans-serif">SAU-06 | 南東部・砂漠地帯（ルブアルハリ砂漠…</text>
<circle cx="957.19" cy="614.83" r="2.5" fill="black"/>
<rect x="559.55" y="627.51" width="197.11" height="207.51" fill="none" stroke="black" stroke-width="2"/>
<text x="563.55" y="643.51" font-size="12" font-family="Arial, sans-serif">SAU-07 | 南部国境地域</text>
<circle cx="658.11" cy="731.26" r="2.5" fill="black"/>
</svg>