<svg xmlns="http://www.w3.org/2000/svg" width="1200" height="900" viewBox="0 0 1200 900">
<rect x="0" y="0" width="100%" height="100%" fill="white"/>
<text x="40" y="26" font-size="20" font-family="Arial, sans-serif">TUR review map</text>
<text x="40" y="48" font-size="12" font-family="Arial, sans-serif">bbox=(25.537720, 35.585852) - (45.000000, 42.289501)</text>
<rect x="40" y="40" width="1120" height="820" fill="none" stroke="#999" stroke-width="1"/>
<rect x="40.00" y="40.00" width="256.79" height="280.06" fill="none" stroke="black" stroke-width="2"/>
<text x="44.00" y="56.00" font-size="12" font-family="Arial, sans-serif">TUR-01 | マルマラ地域</text>
<circle cx="168.40" cy="180.03" r="2.5" fill="black"/>
<rect x="48.54" y="318.74" width="247.84" height="541.26" fill="none" stroke="black" stroke-width="2"/>
<text x="52.54" y="334.74" font-size="12" font-family="Arial, sans-serif">TUR-02 | エーゲ海地域</text>
<circle cx="172.45" cy="589.37" r="2.5" fill="black"/>
<rect x="296.79" y="687.02" width="576.17" height="168.61" fill="none" stroke="black" stroke-width="2"/>
<text x="300.79" y="703.02" font-size="12" font-family="Arial, sans-serif">TUR-03 | 地中海地域</text>
<circle cx="584.88" cy="771.32" r="2.5" fill="black"/>
<rect x="526.98" y="322.85" width="345.99" height="364.17" fill="none" stroke="black" stroke-width="2"/>
<text x="530.98" y="338.85" font-size="12" font-family="Arial, sans-serif">TUR-04 | 中央アナトリア地域</text>
<circle cx="699.97" cy="504.94" r="2.5" fill="black"/>
<rect x="295.11" y="43.48" width="577.16" height="276.57" fill="none" stroke="black" stroke-width="2"/>
<text x="299.11" y="59.48" font-size="12" font-family="Arial, sans-serif">TUR-05 | 黒海地域</text>
<circle cx="583.68" cy="181.77" r="2.5" fill="black"/>
<rect x="872.26" y="75.41" width="287.74" height="733.93" fill="none" stroke="black" stroke-width="2"/>
<text x="876.26" y="91.41" font-size="12" font-family="Arial, sans-serif">TUR-06 | 東部・南東部アナトリア地域</text>
<circle cx="1016.13" cy="442.38" r="2.5" fill="black"/>
</svg>