<svg xmlns="http://www.w3.org/2000/svg" width="1200" height="900" viewBox="0 0 1200 900">
<rect x="0" y="0" width="100%" height="100%" fill="white"/>
<text x="40" y="26" font-size="20" font-family="Arial, sans-serif">TZA review map</text>
<text x="40" y="48" font-size="12" font-family="Arial, sans-serif">bbox=(28.916016, -11.910354) - (40.528564, -0.703107)</text>
<rect x="40" y="40" width="1120" height="820" fill="none" stroke="#999" stroke-width="1"/>
<rect x="40.00" y="40.00" width="563.71" height="300.22" fill="none" stroke="black" stroke-width="2"/>
<text x="44.00" y="56.00" font-size="12" font-family="Arial, sans-serif">TZA-01 | 北西部・湖水地方</text>
<circle cx="321.85" cy="190.11" r="2.5" fill="black"/>
<rect x="611.13" y="85.81" width="430.20" height="256.01" fill="none" stroke="black" stroke-width="2"/>
<text x="615.13" y="101.81" font-size="12" font-family="Arial, sans-serif">TZA-02 | 北東高地・リフト地域</text>
<circle cx="826.23" cy="213.82" r="2.5" fill="black"/>
<rect x="471.26" y="342.63" width="510.73" height="255.49" fill="none" stroke="black" stroke-width="2"/>
<text x="475.26" y="358.63" font-size="12" font-family="Arial, sans-serif">TZA-03 | 中央高原</text>
<circle cx="726.62" cy="470.37" r="2.5" fill="black"/>
<rect x="46.36" y="343.43" width="423.84" height="365.02" fill="none" stroke="black" stroke-width="2"/>
<text x="50.36" y="359.43" font-size="12" font-family="Arial, sans-serif">TZA-04 | 南西高地・西リフト地域</text>
<circle cx="258.28" cy="525.94" r="2.5" fill="black"/>
<rect x="471.26" y="598.12" width="688.74" height="261.88" fill="none" stroke="black" stroke-width="2"/>
<text x="475.26" y="614.12" font-size="12" font-family="Arial, sans-serif">TZA-05 | 南東沿岸・ルフィジ地域</text>
<circle cx="815.63" cy="729.06" r="2.5" fill="black"/>
<rect x="981.99" y="337.42" width="166.36" height="260.70" fill="none" stroke="black" stroke-width="2"/>
<text x="985.99" y="353.42" font-size="12" font-family="Arial, sans-serif">TZA-06 | ザンジバル諸島</text>
<circle cx="1065.17" cy="467.77" r="2.5" fill="black"/>
</svg>