<svg xmlns="http://www.w3.org/2000/svg" width="1200" height="900" viewBox="0 0 1200 900">
<rect x="0" y="0" width="100%" height="100%" fill="white"/>
<text x="40" y="26" font-size="20" font-family="Arial, sans-serif">VEN review map</text>
<text x="40" y="48" font-size="12" font-family="Arial, sans-serif">bbox=(-73.800000, 0.450435) - (-59.644775, 16.024696)</text>
<rect x="40" y="40" width="1120" height="820" fill="none" stroke="#999" stroke-width="1"/>
<rect x="40.00" y="209.78" width="295.06" height="321.89" fill="none" stroke="black" stroke-width="2"/>
<text x="44.00" y="225.78" font-size="12" font-family="Arial, sans-serif">VEN-01 | 北西アンデス・マラカイボ盆地</text>
<circle cx="187.53" cy="370.73" r="2.5" fill="black"/>
<rect x="335.06" y="40.00" width="525.04" height="328.53" fill="none" stroke="black" stroke-width="2"/>
<text x="339.06" y="56.00" font-size="12" font-family="Arial, sans-serif">VEN-02 | 北部沿岸山地・中部カリブ海岸</text>
<circle cx="597.58" cy="204.27" r="2.5" fill="black"/>
<rect x="335.06" y="367.74" width="492.88" height="206.48" fill="none" stroke="black" stroke-width="2"/>
<text x="339.06" y="383.74" font-size="12" font-family="Arial, sans-serif">VEN-03 | 西中部リャノス</text>
<circle cx="581.50" cy="470.98" r="2.5" fill="black"/>
<rect x="825.33" y="275.88" width="334.67" height="208.44" fill="none" stroke="black" stroke-width="2"/>
<text x="829.33" y="291.88" font-size="12" font-family="Arial, sans-serif">VEN-04 | 北東海岸・オリノコデルタ</text>
<circle cx="992.67" cy="380.10" r="2.5" fill="black"/>
<rect x="828.81" y="484.03" width="292.94" height="219.90" fill="none" stroke="black" stroke-width="2"/>
<text x="832.81" y="500.03" font-size="12" font-family="Arial, sans-serif">VEN-05 | ギアナ高地・グランサバナ</text>
<circle cx="975.28" cy="593.98" r="2.5" fill="black"/>
<rect x="498.49" y="575.94" width="373.79" height="284.06" fill="none" stroke="black" stroke-width="2"/>
<text x="502.49" y="591.94" font-size="12" font-family="Arial, sans-serif">VEN-06 | 南西アマソナス・上オリノコ森林</text>
<circle cx="685.38" cy="717.97" r="2.5" fill="black"/>
</svg>