<svg xmlns="http://www.w3.org/2000/svg" width="1200" height="900" viewBox="0 0 1200 900">
<rect x="0" y="0" width="100%" height="100%" fill="white"/>
<text x="40" y="26" font-size="20" font-family="Arial, sans-serif">ZAF review map</text>
<text x="40" y="48" font-size="12" font-family="Arial, sans-serif">bbox=(16.040039, -35.000000) - (34.519043, -21.993989)</text>
<rect x="40" y="40" width="1120" height="820" fill="none" stroke="#999" stroke-width="1"/>
<rect x="40.00" y="190.88" width="543.06" height="352.24" fill="none" stroke="black" stroke-width="2"/>
<text x="44.00" y="206.88" font-size="12" font-family="Arial, sans-serif">ZAF-01 | 北西カラハリ</text>
<circle cx="311.53" cy="367.00" r="2.5" fill="black"/>
<rect x="583.35" y="40.00" width="444.80" height="249.92" fill="none" stroke="black" stroke-width="2"/>
<text x="587.35" y="56.00" font-size="12" font-family="Arial, sans-serif">ZAF-02 | 北部農業地帯</text>
<circle cx="805.76" cy="164.96" r="2.5" fill="black"/>
<rect x="852.37" y="290.55" width="307.63" height="290.86" fill="none" stroke="black" stroke-width="2"/>
<text x="856.37" y="306.55" font-size="12" font-family="Arial, sans-serif">ZAF-03 | 経済中心部</text>
<circle cx="1006.18" cy="435.98" r="2.5" fill="black"/>
<rect x="583.35" y="289.30" width="268.35" height="292.10" fill="none" stroke="black" stroke-width="2"/>
<text x="587.35" y="305.30" font-size="12" font-family="Arial, sans-serif">ZAF-04 | 中央高原</text>
<circle cx="717.53" cy="435.35" r="2.5" fill="black"/>
<rect x="645.95" y="581.40" width="308.97" height="239.49" fill="none" stroke="black" stroke-width="2"/>
<text x="649.95" y="597.40" font-size="12" font-family="Arial, sans-serif">ZAF-05 | 南東部沿岸</text>
<circle cx="800.43" cy="701.15" r="2.5" fill="black"/>
<rect x="86.61" y="543.12" width="557.06" height="316.88" fill="none" stroke="black" stroke-width="2"/>
<text x="90.61" y="559.12" font-size="12" font-family="Arial, sans-serif">ZAF-06 | 南西部</text>
<circle cx="365.14" cy="701.56" r="2.5" fill="black"/>
</svg>